# xmcd
#
# Track frame offsets: 
#        150
#        19848
#        44004
#        67050
#        92491
#        114464
#        132131
#        157319
#        180940
#        202369
#        223821
#        244255
#        281998
#
# Disc length: 4151 seconds
#
# Revision: 4
# Processed by: cddbd v1.5.2PL0 Copyright (c) Steve Scherf et al.
# Submitted via: ExactAudioCopy v0.99pb5
#
DISCID=cf10350d
DTITLE=Various Artist - Purobeach - Volumen Dos
DYEAR=2006
DGENRE=Beach House
TTITLE0=Relax To The Max (Chill mix) - Lenell Brown
TTITLE1=Sonargaon - Baul Dimension
TTITLE2=Forgotten - Jake Childs
TTITLE3=I Am - Jeff Bennetts Lounge Experience
TTITLE4=Island Memories - Lovers Lane
TTITLE5=Caravane (Lezzi Baba remix) - El Kado
TTITLE6=Passed - Vanessa Daou
TTITLE7=Rollin - Jafrosax
TTITLE8=Seventh Space - Peter Daou
TTITLE9=There Is A Light That Never Goes Out - Dalminjo feat. Anja Øye
TTITLE9=n Vister 
TTITLE10=Basic - Numaro
TTITLE11=My Love From Recife - Akisy
TTITLE12=Calling You - Ikon
EXTD=
EXTT0=
EXTT1=
EXTT2=
EXTT3=
EXTT4=
EXTT5=
EXTT6=
EXTT7=
EXTT8=
EXTT9=
EXTT10=
EXTT11=
EXTT12=
PLAYORDER=
